HIERARCHY
ROOT hip
{
  OFFSET 0 0 0
  CHANNELS 6 Xposition Yposition Zposition Zrotation Yrotation Xrotation
  JOINT abdomen
  {
    OFFSET 0 20.6881 -0.73152
    CHANNELS 3 Zrotation Xrotation Yrotation
    JOINT chest
    {
      OFFSET 0 11.7043 -0.48768
      CHANNELS 3 Zrotation Xrotation Yrotation
      JOINT neck
      {
        OFFSET 0 22.1894 -2.19456
        CHANNELS 3 Zrotation Xrotation Yrotation
        JOINT head
        {
          OFFSET -0.24384 7.07133 1.2192
          CHANNELS 3 Zrotation Xrotation Yrotation
          JOINT leftEye
          {
            OFFSET 4.14528 8.04674 8.04672
            CHANNELS 3 Zrotation Xrotation Yrotation
            End Site
            {
              OFFSET 1 0 0
            }
          }
          JOINT rightEye
          {
            OFFSET -3.6576 8.04674 8.04672
            CHANNELS 3 Zrotation Xrotation Yrotation
            End Site
            {
              OFFSET 1 0 0
            }
          }
        }
      }
      JOINT rCollar
      {
        OFFSET -2.68224 19.2634 -4.8768
        CHANNELS 3 Zrotation Xrotation Yrotation
        JOINT rShldr
        {
          OFFSET -8.77824 -1.95073 1.46304
          CHANNELS 3 Zrotation Xrotation Yrotation
          JOINT rForeArm
          {
            OFFSET -28.1742 -1.7115 0.48768
            CHANNELS 3 Zrotation Xrotation Yrotation
            JOINT rHand
            {
              OFFSET -22.5879 0.773209 7.07136
              CHANNELS 3 Zrotation Xrotation Yrotation
              JOINT rThumb1
              {
                OFFSET -1.2192 -0.487915 3.41376
                CHANNELS 3 Zrotation Xrotation Yrotation
                JOINT rThumb2
                {
                  OFFSET -3.37035 -0.52449 3.41376
                  CHANNELS 3 Zrotation Xrotation Yrotation
                  End Site
                  {
                    OFFSET -1.78271 -1.18214 1.43049
                  }
                }
              }
              JOINT rIndex1
              {
                OFFSET -7.75947 0.938293 5.60832
                CHANNELS 3 Zrotation Xrotation Yrotation
                JOINT rIndex2
                {
                  OFFSET -2.54057 -0.884171 1.56538
                  CHANNELS 3 Zrotation Xrotation Yrotation
                  End Site
                  {
                    OFFSET -1.62519 -0.234802 1.16502
                  }
                }
              }
              JOINT rMid1
              {
                OFFSET -8.24714 1.18213 3.41376
                CHANNELS 3 Zrotation Xrotation Yrotation
                JOINT rMid2
                {
                  OFFSET -3.10165 -0.590103 1.0647
                  CHANNELS 3 Zrotation Xrotation Yrotation
                  End Site
                  {
                    OFFSET -2.48547 -0.328903 0.83742
                  }
                }
              }
              JOINT rRing1
              {
                OFFSET -8.82822 0.546677 1.51678
                CHANNELS 3 Zrotation Xrotation Yrotation
                JOINT rRing2
                {
                  OFFSET -2.60934 -0.819778 -0.0198488
                  CHANNELS 3 Zrotation Xrotation Yrotation
                  End Site
                  {
                    OFFSET -2.33842 -0.294052 0.168128
                  }
                }
              }
              JOINT rPinky1
              {
                OFFSET -8.27202 -0.0477905 -0.4584
                CHANNELS 3 Zrotation Xrotation Yrotation
                JOINT rPinky2
                {
                  OFFSET -1.82734 -0.647385 -0.700984
                  CHANNELS 3 Zrotation Xrotation Yrotation
                  End Site
                  {
                    OFFSET -1.69225 -0.51767 -0.607171
                  }
                }
              }
            }
          }
        }
      }
      JOINT lCollar
      {
        OFFSET 2.68224 19.2634 -4.8768
        CHANNELS 3 Zrotation Xrotation Yrotation
        JOINT lShldr
        {
          OFFSET 8.77824 -1.95073 1.46304
          CHANNELS 3 Zrotation Xrotation Yrotation
          JOINT lForeArm
          {
            OFFSET 28.1742 -1.7115 0.48768
            CHANNELS 3 Zrotation Xrotation Yrotation
            JOINT lHand
            {
              OFFSET 22.5879 0.773209 7.07136
              CHANNELS 3 Zrotation Xrotation Yrotation
              JOINT lThumb1
              {
                OFFSET 1.2192 -0.487915 3.41376
                CHANNELS 3 Zrotation Xrotation Yrotation
                JOINT lThumb2
                {
                  OFFSET 3.37035 -0.52449 3.41376
                  CHANNELS 3 Zrotation Xrotation Yrotation
                  End Site
                  {
                    OFFSET 1.78271 -1.18214 1.43049
                  }
                }
              }
              JOINT lIndex1
              {
                OFFSET 7.75947 0.938293 5.60832
                CHANNELS 3 Zrotation Xrotation Yrotation
                JOINT lIndex2
                {
                  OFFSET 2.54057 -0.884171 1.56538
                  CHANNELS 3 Zrotation Xrotation Yrotation
                  End Site
                  {
                    OFFSET 1.62519 -0.234802 1.16502
                  }
                }
              }
              JOINT lMid1
              {
                OFFSET 8.24714 1.18213 3.41376
                CHANNELS 3 Zrotation Xrotation Yrotation
                JOINT lMid2
                {
                  OFFSET 3.10165 -0.590103 1.0647
                  CHANNELS 3 Zrotation Xrotation Yrotation
                  End Site
                  {
                    OFFSET 2.48547 -0.328903 0.83742
                  }
                }
              }
              JOINT lRing1
              {
                OFFSET 8.82822 0.546677 1.51678
                CHANNELS 3 Zrotation Xrotation Yrotation
                JOINT lRing2
                {
                  OFFSET 2.60934 -0.819778 -0.0198488
                  CHANNELS 3 Zrotation Xrotation Yrotation
                  End Site
                  {
                    OFFSET 2.33842 -0.294052 0.168128
                  }
                }
              }
              JOINT lPinky1
              {
                OFFSET 8.27202 -0.0477905 -0.4584
                CHANNELS 3 Zrotation Xrotation Yrotation
                JOINT lPinky2
                {
                  OFFSET 1.82734 -0.647385 -0.700984
                  CHANNELS 3 Zrotation Xrotation Yrotation
                  End Site
                  {
                    OFFSET 1.69225 -0.51767 -0.607171
                  }
                }
              }
            }
          }
        }
      }
    }
  }
  JOINT rButtock
  {
    OFFSET -8.77824 4.35084 1.2192
    CHANNELS 3 Zrotation Xrotation Yrotation
    JOINT rThigh
    {
      OFFSET 0 -1.70687 -2.19456
      CHANNELS 3 Zrotation Xrotation Yrotation
      JOINT rShin
      {
        OFFSET 0 -36.8199 0.73152
        CHANNELS 3 Zrotation Xrotation Yrotation
        JOINT rFoot
        {
          OFFSET 0.73152 -45.1104 -5.12064
          CHANNELS 3 Zrotation Xrotation Yrotation
          End Site
          {
            OFFSET -1.1221 -3.69964 12.103
          }
        }
      }
    }
  }
  JOINT lButtock
  {
    OFFSET 8.77824 4.35084 1.2192
    CHANNELS 3 Zrotation Xrotation Yrotation
    JOINT lThigh
    {
      OFFSET 0 -1.70687 -2.19456
      CHANNELS 3 Zrotation Xrotation Yrotation
      JOINT lShin
      {
        OFFSET 0 -36.8199 0.73152
        CHANNELS 3 Zrotation Xrotation Yrotation
        JOINT lFoot
        {
          OFFSET -0.73152 -45.1104 -5.12064
          CHANNELS 3 Zrotation Xrotation Yrotation
          End Site
          {
            OFFSET 1.1221 -3.69964 12.103
          }
        }
      }
    }
  }
}
MOTION
Frames:	4
Frame Time:	0.03333
0.16849972307682037 60.49041152000427 -0.056460220366716385 -6.9920322099434955 5.872852780470839 2.305313068944833 -2.571854157671999 15.302919307103094 4.160958499447761 2.690004690925584 -10.302974947843639 1.323317241899942 -4.935269724895426 15.320507044215876 -2.993283446207544 8.664670405598748 -24.976640879544505 -4.580864015468158 0.061979777890913794 -0.031160283488950204 -0.00943647996754119 -0.23293410341147033 -0.05608321688350361 0.032048514905955984 0.09351369407180485 -0.05261961728321956 -0.00937522170842264 43.686654912588594 27.77301936349069 14.976386745905002 -24.277731527439194 -30.177237413598718 63.77995129974223 -4.935135255546142 -9.9871128496764 -5.726485241652051 0.14463363126495704 -0.01185384666541002 0.08510514423413736 0.02729685101795596 -0.11512257165630047 0.015110459517330943 -0.08004704230819912 0.05472721088984451 0.14831158141130313 7.7381543909128725 5.671806162251514 0.4756024536898253 0.04417456862217481 -0.04084661230993899 0.020017736992573542 2.9927686206988544 1.0652294727660185 0.09956741613119144 0.045759492674735114 0.06737255908618266 0.09033800295329271 10.13643871417945 0.7598951507090016 -0.00736401114233156 -0.04200027394943646 0.13266287097086343 0.027766319801688553 2.3631143985697123 -0.7082494757127435 -0.1138875613965711 0.06831811339940629 0.021875761890228572 -0.06337881941242926 -51.874060727290825 30.18567952741285 -21.85253113620089 23.397473822680876 -28.47814248019342 -60.57534948457731 5.620374410914494 -14.24559919339595 5.177583065419499 -0.06369306147510273 0.05670033514718484 0.03706583580007248 -0.022686473328197353 0.07366497758076268 0.07109682645283788 -0.05285520544873211 0.04975075106882909 0.030605757505709794 -7.898335987328012 5.55145566775495 -0.3873579570779944 -0.03399990795595656 -0.05099499275610856 -0.023552786774878265 -2.9120639592396302 0.9216597501859969 -0.06640036436715331 0.06264660178906273 -0.08183900646997544 0.041669943589616426 -10.370208768712306 0.7285847097800169 0.12017899271537263 -0.04721879860948404 0.049940608983414285 -0.08349628783905556 -2.200573398683157 -0.781237784317999 0.3960731717372249 -0.03623351321668296 -0.011165651745678344 -0.04217046838973142 -29.457352550552297 -35.25492640108584 -28.398951559409 -6.478547125878399 60.24952897060019 7.419950391633964 -4.992179287946796 -10.078949011935451 -9.677431218934375 -0.0028865019762708576 0.0508244514702698 -0.09449758815783048 33.69985283651943 -33.063859771953695 30.273426967680006 6.680841534281721 61.1513803184195 -8.109311993053243 5.251365757041739 -10.024329696690153 12.78056801265782
-0.17838068306446075 64.52359557151794 -0.08408986032009125 -4.0498791329758435 4.2540386099094025 5.016347485438063 -2.7348376257507243 14.261191661497442 2.990142839849808 2.8578915944981436 -9.274854746611947 0.8586592592205629 -5.169832081372005 15.621629594154228 -4.74679278918304 9.257150042509627 -25.618168104885246 -6.761367330162056 0.028404915808658303 -0.0825738921359865 0.02898674920836554 0.06589136853164192 0.032923112625048184 0.02091426602220383 -0.055471674828949456 0.1044230269606226 0.030766493734829876 53.38995632677804 30.735417548045085 15.381316218396499 -23.833282580410003 -28.52696979502255 65.77878566977896 -3.850456392231689 -9.482080124709194 -4.015875463079758 -0.114146655017782 0.07685926495650723 -0.21725046829281366 -0.0583481716453033 -0.015483932126713125 0.08096757038141701 0.016224047156307476 -0.06317754227532545 -0.06405137960226395 7.853803153939528 5.456868646807675 0.4564814458300804 -0.08990407249758534 -0.05040676939426766 0.05214801406537134 2.880741565479598 0.8495280433521962 0.06032222971756922 -0.019104946243024806 -0.08399884035158041 -0.08801221681919759 10.492067881241796 0.789096183762363 0.05101014723832953 0.1443531132613105 -0.10022085979547804 -0.12174672123308891 2.1403938825666438 -0.9699861133281874 -0.3238154532493228 -0.05131216966569103 -0.08413304289660058 -0.08814006942272376 -63.22933559980165 33.603253471087946 -25.59890014123664 22.73333013345093 -26.479427638467172 -62.305122212639716 5.141600775098226 -11.391125681690575 3.4328765556236807 0.00255753231819954 -0.1817640336970273 -0.0052602061562618515 0.1346115025967269 -0.06380261130608739 -0.015983176266358746 0.01134131567339461 -0.015019879469548938 -0.025422657781875038 -7.653431016900742 5.500559659380953 -0.5967197970032814 0.11956835779531763 -0.1564568488008078 -0.14016311237062504 -2.9888419022563317 1.0029806227744034 -0.14078069754176906 -0.08978150261849534 -0.03786635531513913 0.10381212523630313 -10.295810079404296 0.7519971575117925 -0.2675520634460337 0.24186895134119904 -0.044743688798680833 0.050366668713320274 -2.186055404715472 -0.7683423871650149 0.009725815852127923 -0.006086925850097848 0.03274248613801308 -0.027882593100137444 -32.5654984342583 -36.23721688676039 -27.368865117469987 -4.373373967540573 63.66434351785059 5.887342599908198 -4.5754912179122975 -9.644796575080054 -10.592675713942437 0.12085272684397093 0.01893669947386035 0.16573998301735426 36.799758096991816 -33.40336115483835 29.329590447032626 3.4320889494350135 63.83808303976821 -4.599390049818172 5.2544278162240206 -10.026515357224557 15.636604783909481
-0.061522237956523895 59.860050678253174 0.5177606828510761 4.46594821711681 17.62330190779109 2.285500824596742 -11.07243588520695 12.711464427503861 -1.8561867229946516 6.038749110787163 -8.828283318298173 -0.34668639504596344 -6.890576153125303 15.340606583395932 -9.548377355887922 11.304740010389192 -21.823697492619683 -15.758822481370396 0.005584079852882104 0.11196835828107685 0.1727614308243406 -0.2921187597866886 -0.21575809863959233 -0.050601656569237805 -0.02883265640543035 0.19845701602853846 -0.07722082475548156 49.615730395212395 20.687970222335377 14.760412749254613 -18.263987312316626 -16.35321457124888 43.25381899469572 -0.35559538964246656 1.3297029351653749 0.4987391325338617 0.07262721571374386 0.1451683070109221 -0.2305947903011674 0.001298803159360237 -0.1802618723273005 0.028729002948690116 0.03400302956585067 -0.09952418050013674 0.3214439101838739 7.340182319864678 5.3908083378157805 0.24584828358467192 -0.05019922235694918 0.12894404641120305 -0.07008387738241326 2.4705543414310704 0.7908724064725366 0.22980907842277792 0.1388602004255922 0.14771554068451373 0.536139540881559 9.63412867337014 0.9700324305484965 -0.1945874470594618 -0.01789376160411114 0.01669052773227819 0.07828419983188792 2.308067556171052 -0.5108133061608575 -0.21039354533550267 -0.27084127977907085 -0.10839638278857174 -0.3622673638836583 -61.85325055753001 36.69198454207818 -13.387326160028609 19.095834343785185 -19.230701551588965 -48.92677604382238 1.4636646092955985 -9.62333953580246 1.7636485453549684 -0.0253739926840387 0.03787355903027938 0.08796525926865376 0.0020980420139575105 0.22078042211366733 -0.024584091978697303 0.09192655554384958 0.045081142832361774 0.019731402655961915 -7.405979239686704 5.01317998521047 -0.4240105130724282 0.26201835623828046 -0.0959851286538652 -0.07731630066151629 -2.479708075579357 0.6339534526856951 0.19315354756079545 0.14022127570027593 -0.21769840597240486 0.1281272785164312 -9.587484457754478 0.9011815623938293 -0.12557398838603645 0.3294719971404306 -0.07543044807907874 0.12128644385626673 -2.1182226616339594 -0.8097987539409361 0.5175326114785633 0.0672123164449518 0.0443098383842528 -0.2558870074781511 -49.1583228717804 -50.65499490384861 -39.4884927996186 -10.252849043298562 61.75460213534752 10.425812484971733 0.6207101961327164 -2.7148932599308755 4.34366307153784 -0.09378244600738898 0.16653495300372026 -0.12601944478596822 9.665475826565913 -1.870929686318124 3.6900703170282725 -4.784035249406181 38.73075161309738 2.417104055750901 10.174843160335138 -14.858052010987238 28.066290610978115
-0.30443668365478516 62.33186721801758 1.3079693540930748 12.6600706690941 22.782106221861287 10.313464410861487 -16.432902388295417 13.610395869452995 -5.7415530658479215 8.360798704519466 -9.716464896267352 -1.3910334448787407 -8.494137657496454 16.923383395235913 -12.758912044120647 12.46170404635036 -23.444426250582836 -20.259811276476665 0.393895488650328 -0.08481323368839865 0.2557764971518144 -0.10440040195899693 -0.1367217108851435 -0.4122887878787756 -0.19099223291552275 -0.9032169587664931 -0.027395128368767452 59.46421431039963 29.137668961544435 4.336297566291628 -18.78366396286434 -13.057387041981974 38.3097387526578 -0.2333530394675154 4.424896645770917 0.5007843473034574 -0.03482254554454642 0.3487629059557795 -0.48344687259073205 -0.29745719295328826 0.12956236529407433 0.06601489890608395 -0.07222498160465358 0.5733342965022155 0.31147898434994264 7.859598569450284 5.98016743204961 0.17067842323068505 0.22887398283672086 -0.14061443846437477 0.074630222048703 2.928736451003631 0.9793148710739554 0.26070896094962137 0.20946231841128019 0.31894400758679636 -0.039217558832038056 10.581001213103594 0.6233110574634633 -0.18239203757469824 0.21814130105139787 -0.015185004628819285 0.1335713795119677 2.283724121638892 -0.428137388074144 -0.3600155625720962 -0.05022318137989712 -0.2610053271265765 0.2566793627827254 -68.14990633071639 35.49878464502281 -11.221647344041402 17.65200065513619 -11.849504799532008 -36.45991520464866 -2.874699622828487 6.909833444603331 -5.278963990156822 0.28099403581517746 0.11940381960542908 -0.40370921650759334 -0.2518355847224228 0.16936275804181133 0.062133697271077086 -0.037266045720118476 0.1991675424652049 -0.5943609805012469 -7.801638437927202 4.829665608816921 -0.73471640538569 0.39818842262623966 0.26140483983216933 0.04936599263906052 -2.6769891251318896 0.8856466706526055 0.09382330708049005 -0.09202399246122804 -0.2364182469401173 0.45780933065426604 -11.030297033122556 0.4523963523761781 -0.03638132277919026 0.20607577188257034 0.3922963172500458 0.0302381012292927 -2.206342774097702 -0.6977038770776554 0.8138916380793605 -0.24193373141660837 0.24396507236445247 0.14588739786447752 -66.5856700673784 -61.51358525010528 -55.422610378490084 -9.498609182500624 70.66840881356435 10.319279463166106 1.964969438358152 -0.3616617182033486 10.882160475308734 -0.2442904668453801 -0.2169255273791356 -0.02751392296751543 5.8998695937328245 20.280996815734753 1.011974060920606 -1.7579754329190382 25.853807923703393 -2.2143755034484602 13.989588335378238 -18.49546413083565 38.47876202895352
